<svg version="1.1" id="logo_x5F_bip_1_" x="0px"
	 y="0px" viewBox="0 0 267 158" style="enable-background:new 0 0 267 158;" xml:space="preserve">
<path id="bip_1_" d="M184.8,152.8L82.3,50.2c-0.8-0.8-2-0.8-2.8,0L47.6,82.1c-0.8,0.8-0.8,2,0,2.8L79,116.3c0.8,0.8,2,0.8,2.8,0
	l25-25c0.8-0.8,2-0.8,2.8,0l15.2,15.2c0.8,0.8,0.8,2,0,2.8l-43,43c-0.8,0.8-2,0.8-2.8,0L11.5,84.9c-0.8-0.8-0.8-2,0-2.8l67.9-67.9
	c0.8-0.8,2-0.8,2.8,0l102.5,102.5c0.8,0.8,2,0.8,2.8,0l31.8-31.8c0.8-0.8,0.8-2,0-2.8l-31.8-31.8c-0.8-0.8-2-0.8-2.8,0l-19,19
	c-0.8,0.8-2,0.8-2.8,0L140.6,47c-0.8-0.8-0.8-2,0-2.8l15.2-15.2c0.8-0.8,2-0.8,2.8,0l4.3,4.3c0.8,0.8,2,0.8,2.8,0l19-19
	c0.8-0.8,2-0.8,2.8,0l67.9,67.9c0.8,0.8,0.8,2,0,2.8l-67.9,67.9C186.8,153.5,185.5,153.5,184.8,152.8z"/>
<path id="punto_1_" d="M132.1,38.5l-15.2-15.2c-0.8-0.8-0.8-2,0-2.8l15.2-15.2c0.8-0.8,2-0.8,2.8,0l15.2,15.2c0.8,0.8,0.8,2,0,2.8
	l-15.2,15.2C134.1,39.3,132.9,39.3,132.1,38.5z"/>
</svg>
