<?xml version="1.0" encoding="utf-8"?>
<!-- Generator: Adobe Illustrator 24.0.2, SVG Export Plug-In . SVG Version: 6.00 Build 0)  -->
<svg version="1.1" id="Capa_1" xmlns="http://www.w3.org/2000/svg" xmlns:xlink="http://www.w3.org/1999/xlink" x="0px" y="0px"
	 viewBox="0 0 38 38" style="enable-background:new 0 0 38 38;" xml:space="preserve">
<style type="text/css">
	.st0{fill:#1C2321;}
</style>
<g id="creatividad_x5F__x5F_icon">
	<path id="icon-rocket" class="st0" d="M37.2,0C29.8-0.1,21.3,3.7,16,9.8C10.9,9.9,5.9,12,2.2,15.7C2,15.9,1.9,16.2,2,16.5
		C2.1,16.8,2.3,17,2.6,17l6.1,0.9l-0.8,0.8c-0.3,0.3-0.3,0.8,0,1.1L18.1,30c0.2,0.2,0.4,0.2,0.6,0.2s0.4-0.1,0.5-0.2l0.8-0.8
		l0.9,6.1c0,0.3,0.3,0.5,0.6,0.6c0.1,0,0.1,0,0.2,0c0.2,0,0.5-0.1,0.6-0.3C25.9,32,28,27,28.1,21.9c6-5.4,9.9-13.8,9.8-21.2
		C38,0.4,37.6,0.1,37.2,0L37.2,0z M29.9,13.7c-0.8,0.8-1.8,1.2-2.8,1.2s-2-0.4-2.8-1.2c-1.5-1.5-1.5-4.1,0-5.6s4.1-1.5,5.6,0
		C31.5,9.7,31.5,12.2,29.9,13.7z"/>
	<path id="icon-fire" class="st0" d="M4.3,26.8C2.6,28.5,0.3,36.1,0,37c-0.1,0.3,0,0.6,0.2,0.8S0.6,38,0.8,38C0.9,38,1,38,1,38
		c0.9-0.3,8.5-2.6,10.2-4.3c1.9-1.9,1.9-5,0-6.9C9.3,24.9,6.2,24.9,4.3,26.8L4.3,26.8z"/>
</g>
</svg>
