<svg width="46" height="53" viewBox="0 0 46 53" fill="none" xmlns="http://www.w3.org/2000/svg">
<path d="M45.4595 12.987C45.0811 12.3349 44.5405 11.7916 43.7838 11.3569C37.6757 7.77068 31.5135 4.23881 25.4054 0.70694C23.7297 -0.271117 22.1622 -0.21678 20.5405 0.761276C18.0541 2.17402 5.83784 9.23777 2.21622 11.3569C0.702703 12.2263 0 13.5303 0 15.2691V36.6777C0 37.5471 0.162162 38.2534 0.540541 38.9055C0.864865 39.6662 1.45946 40.2096 2.21622 40.6442C5.83784 42.7634 18.0541 49.7728 20.4865 51.2399C20.7027 51.3485 20.9189 51.4572 21.0811 51.5659C22.5405 52.2179 23.9459 52.1636 25.4054 51.2942C31.5135 47.708 37.6757 44.1761 43.7838 40.6442C44.5405 40.2096 45.0811 39.6662 45.4595 38.9598C45.8378 38.3078 46 37.5471 46 36.6777V15.2691C46 14.3997 45.8378 13.639 45.4595 12.987ZM22.973 41.3506C17.2973 41.3506 12.3784 38.2534 9.72973 33.6348C8.43243 31.407 7.67568 28.7446 7.67568 25.9734C7.67568 17.4969 14.4865 10.5962 22.973 10.5962C28.6487 10.5962 33.5676 13.6934 36.2162 18.2576L29.5676 22.1155C28.2703 19.8334 25.7838 18.312 22.973 18.312C18.7568 18.312 15.3514 21.7352 15.3514 25.9734C15.3514 27.3318 15.7297 28.6359 16.3784 29.777C17.6757 32.0591 20.1622 33.6348 22.973 33.6348C25.8378 33.6348 28.3243 32.0591 29.6216 29.7226L36.2703 33.5805C33.6216 38.2534 28.7027 41.3506 22.973 41.3506ZM42.6487 25.104H41.4054V26.9515H42.6487V28.4729H41.4054V29.7226H39.8919V28.4729H38.0541V29.7226H36.5405V28.4729H35.2973V26.9515H36.5405V25.104H35.2973V23.5826H36.5405V22.3329H38.0541V23.5826H39.8919V22.3329H41.4054V23.5826H42.6487V25.104Z" fill="#1C2321"/>
</svg>
