<svg width="35" height="53" viewBox="0 0 35 53" fill="none" xmlns="http://www.w3.org/2000/svg">
<path d="M0 43.5C0 41.1926 0.916604 38.9797 2.54817 37.3482C4.17974 35.7166 6.39262 34.8 8.7 34.8H17.4V43.5C17.4 45.8074 16.4834 48.0203 14.8518 49.6518C13.2203 51.2834 11.0074 52.2 8.7 52.2C6.39262 52.2 4.17974 51.2834 2.54817 49.6518C0.916604 48.0203 0 45.8074 0 43.5ZM8.7 34.8H17.4V17.4H8.7C6.39262 17.4 4.17974 18.3166 2.54817 19.9482C0.916604 21.5797 0 23.7926 0 26.1C0 28.4074 0.916604 30.6203 2.54817 32.2518C4.17974 33.8834 6.39262 34.8 8.7 34.8ZM8.7 17.4H17.4V0H8.7C6.39262 0 4.17974 0.916604 2.54817 2.54817C0.916604 4.17974 0 6.39262 0 8.7C0 11.0074 0.916604 13.2203 2.54817 14.8518C4.17974 16.4834 6.39262 17.4 8.7 17.4ZM17.4 17.4H26.1C28.4074 17.4 30.6203 16.4834 32.2518 14.8518C33.8834 13.2203 34.8 11.0074 34.8 8.7C34.8 6.39262 33.8834 4.17974 32.2518 2.54817C30.6203 0.916604 28.4074 0 26.1 0H17.4V17.4ZM26.1 17.4C24.3793 17.4 22.6972 17.9102 21.2665 18.8662C19.8358 19.8222 18.7207 21.1809 18.0622 22.7707C17.4038 24.3604 17.2315 26.1097 17.5672 27.7973C17.9029 29.4849 18.7315 31.0351 19.9482 32.2518C21.1649 33.4685 22.7151 34.2971 24.4027 34.6328C26.0903 34.9685 27.8396 34.7962 29.4293 34.1378C31.0191 33.4793 32.3778 32.3642 33.3338 30.9335C34.2898 29.5028 34.8 27.8207 34.8 26.1C34.8 23.7926 33.8834 21.5797 32.2518 19.9482C30.6203 18.3166 28.4074 17.4 26.1 17.4Z" fill="#1C2321"/>
</svg>
