<svg width="53" height="53" viewBox="0 0 53 53" fill="none" xmlns="http://www.w3.org/2000/svg">
<path d="M5.83333 0C2.62044 0 0 2.62044 0 5.83333V46.6667C0 49.8796 2.62044 52.5 5.83333 52.5H46.6667C49.8796 52.5 52.5 49.8796 52.5 46.6667V5.83333C52.5 2.62044 49.8796 0 46.6667 0H5.83333ZM36.4583 13.125C37.9167 13.125 39.1016 14.3099 39.1016 15.7682C39.1016 17.2266 37.9167 18.4115 36.4583 18.4115C35 18.4115 33.8151 17.2266 33.8151 15.7682C33.8151 14.3099 35 13.125 36.4583 13.125ZM19.5052 14.3099H24.2448L32.0833 39.1016H26.5234L25.0651 34.0885H18.4115L16.9531 39.1016H11.6667L19.5052 14.3099ZM34.0885 20.6901H39.1016V39.1016H34.0885V20.6901ZM21.875 20.9635L19.5052 29.7135H24.2448L21.875 20.9635Z" fill="#1C2321"/>
</svg>
