<svg width="52" height="53" viewBox="0 0 52 53" fill="none" xmlns="http://www.w3.org/2000/svg">
<path d="M0 0.6875V52.3125H52V0.6875H0ZM28.2982 40.9504C28.2982 45.9746 25.3268 48.2678 20.9973 48.2678C17.0857 48.2678 14.8223 46.2627 13.6616 43.8312L17.6429 41.4459C18.4089 42.7941 19.1054 43.935 20.7884 43.935C22.3902 43.935 23.4116 43.3127 23.4116 40.8812V24.3912H28.2982V40.9504ZM39.8589 48.2678C35.3205 48.2678 32.3839 46.1244 30.9563 43.3127L34.9375 41.0311C35.9821 42.725 37.3518 43.9811 39.7545 43.9811C41.7741 43.9811 43.0741 42.9785 43.0741 41.5842C43.0741 39.9248 41.7509 39.3371 39.5107 38.3576L38.292 37.8391C34.7634 36.3525 32.4304 34.4742 32.4304 30.5217C32.4304 26.8803 35.2277 24.1146 39.5804 24.1146C42.6911 24.1146 44.9196 25.1863 46.5214 27.998L42.7143 30.418C41.8786 28.9314 40.9732 28.3438 39.5687 28.3438C38.1411 28.3438 37.2357 29.2426 37.2357 30.418C37.2357 31.8699 38.1411 32.4576 40.242 33.368L41.4607 33.8865C45.6161 35.6496 47.9491 37.4588 47.9491 41.515C47.9491 45.8709 44.4902 48.2678 39.8589 48.2678Z" fill="#1C2321"/>
</svg>
