<svg width="53" height="53" viewBox="0 0 53 53" fill="none" xmlns="http://www.w3.org/2000/svg">
<path d="M5.83333 0C2.625 0 0 2.625 0 5.83333V46.6667C0 49.875 2.625 52.5 5.83333 52.5H46.6667C49.875 52.5 52.5 49.875 52.5 46.6667V5.83333C52.5 2.625 49.875 0 46.6667 0H5.83333ZM11.3477 14.5833H19.2204C26.0045 14.5833 26.814 20.8264 26.814 22.1826C26.811 27.6076 23.0173 29.5028 19.4881 29.5028H16.2297V37.6432H11.3477V14.5833ZM16.2297 18.383V25.7088H19.4881C21.6581 25.7088 22.1997 24.0814 22.1997 22.1826C22.2026 20.281 21.3898 18.383 19.4881 18.383H16.2297ZM35.4956 20.2799C39.5644 20.2799 41.7334 22.7251 41.7334 25.7088H37.1248C37.1248 24.3526 36.5806 23.5384 35.4956 23.5384C34.6819 23.5384 33.8664 24.0826 33.8664 25.1676C33.8664 27.8801 41.7391 27.0643 41.7391 33.0347C41.7362 37.1034 37.6656 37.9167 35.4956 37.9167C31.1556 37.9167 28.9844 34.9326 28.9844 32.2201H33.3252C33.3252 34.3901 34.9531 34.6639 35.4956 34.6639C36.5806 34.6639 37.3926 34.1197 37.3926 33.0347C37.3926 30.5934 29.5199 30.8633 29.5199 25.4354C29.5199 21.3666 33.3227 20.2799 35.4956 20.2799Z" fill="#1C2321"/>
</svg>
