<svg width="71" height="54" viewBox="0 0 71 54" fill="none" xmlns="http://www.w3.org/2000/svg">
<path d="M60.2496 30.9523C57.8054 30.9639 55.6879 31.5531 53.9117 32.4281C53.2613 31.1331 52.605 29.9927 52.4942 29.1439C52.3659 28.1552 52.2171 27.5631 52.3717 26.3848C52.5263 25.2064 53.2088 23.5381 53.2 23.4127C53.1913 23.2873 53.0484 22.6864 51.6367 22.6777C50.225 22.6689 49.0204 22.9489 48.8775 23.3223C48.7346 23.6956 48.4634 24.5327 48.2942 25.4077C48.0463 26.6852 45.4796 31.2469 44.0213 33.6327C43.5429 32.7023 43.1375 31.8798 43.0529 31.2323C42.9246 30.2435 42.7759 29.6514 42.9304 28.4731C43.085 27.2948 43.7675 25.6264 43.7588 25.501C43.75 25.3756 43.6071 24.7748 42.1954 24.766C40.7838 24.7573 39.5792 25.0373 39.4363 25.4106C39.2934 25.7839 39.1417 26.6531 38.8529 27.496C38.5642 28.3389 35.1488 35.9456 34.2563 37.9173C33.8013 38.9206 33.4046 39.7285 33.1246 40.2798L33.1217 40.2769C33.1217 40.2769 33.1042 40.3148 33.075 40.376C32.8359 40.8456 32.6929 41.1052 32.6929 41.1052C32.6929 41.1052 32.6959 41.1081 32.6959 41.1139C32.5063 41.4581 32.3021 41.7789 32.2 41.7789C32.13 41.7789 31.9871 40.8631 32.2321 39.6031C32.7396 36.9635 33.9617 32.8481 33.9471 32.7081C33.9413 32.6352 34.1746 31.9177 33.1509 31.5444C32.1563 31.1798 31.8004 31.7864 31.71 31.7894C31.6225 31.7923 31.5554 32.0052 31.5554 32.0052C31.5554 32.0052 32.6638 27.3764 29.4409 27.3764C27.4254 27.3764 24.6342 29.5814 23.2575 31.5794C22.3884 32.0519 20.5304 33.0669 18.5617 34.1489C17.8034 34.566 17.0333 34.9889 16.2983 35.3944C16.2488 35.3389 16.1992 35.2835 16.1467 35.2281C12.2383 31.0573 5.01085 28.1085 5.3171 22.5027C5.42793 20.4639 6.13668 15.0973 19.2004 8.58728C29.9017 3.25561 38.4709 4.7227 39.9496 7.97478C42.0642 12.621 35.3704 21.2573 24.2579 22.5027C20.0229 22.9781 17.7946 21.336 17.2404 20.7264C16.6571 20.0819 16.5696 20.0527 16.3509 20.1752C15.995 20.3706 16.2196 20.9394 16.3509 21.2777C16.6834 22.141 18.0454 23.6723 20.3671 24.4335C22.4088 25.1044 27.3817 25.4719 33.3929 23.1473C40.1275 20.5427 45.3863 13.2977 43.8404 7.23978C42.2684 1.07978 32.0571 -0.944389 22.3884 2.48853C16.6425 4.52144 10.4154 7.72978 5.93835 11.9181C0.615431 16.8969 -0.236236 21.2339 0.113764 23.0452C1.35626 29.4794 10.2258 33.6706 13.7783 36.7769C13.6034 36.8731 13.44 36.9635 13.2884 37.0481C11.5063 37.9289 4.74543 41.4669 3.05376 45.206C1.1346 49.4469 3.36001 52.4889 4.83002 52.9002C9.39168 54.1689 14.0729 51.8852 16.5871 48.1344C19.1013 44.3835 18.795 39.4981 17.64 37.2698C17.6254 37.2435 17.6109 37.2144 17.5963 37.1881C18.0571 36.9169 18.5238 36.6398 18.9904 36.3656C19.8975 35.8348 20.7871 35.336 21.5571 34.916C21.1254 36.1002 20.8075 37.5177 20.6442 39.5681C20.4546 41.9714 21.4434 45.0835 22.7325 46.3085C23.3013 46.8481 23.9838 46.8598 24.4184 46.8598C25.9204 46.8598 26.6059 45.6114 27.3613 44.1327C28.2859 42.3185 29.1084 40.2098 29.1084 40.2098C29.1084 40.2098 28.0788 45.9119 30.8875 45.9119C31.9113 45.9119 32.9409 44.5848 33.3988 43.9081C33.3988 43.9169 33.4017 43.9198 33.4017 43.9198C33.4017 43.9198 33.4279 43.876 33.4804 43.7885C33.5854 43.6252 33.6467 43.5231 33.6467 43.5231C33.6467 43.5231 33.6496 43.5114 33.6525 43.4939C34.0638 42.7794 34.9767 41.1519 36.3446 38.4656C38.1121 34.9948 39.8067 30.6489 39.8067 30.6489C39.8067 30.6489 39.9642 31.7106 40.4804 33.4694C40.7838 34.5019 41.4313 35.6452 41.9388 36.7419C41.5275 37.3106 41.2767 37.6373 41.2767 37.6373C41.2767 37.6373 41.2796 37.6431 41.2825 37.6548C40.9559 38.0894 40.5884 38.5589 40.2034 39.0169C38.8092 40.6794 37.1467 42.5752 36.925 43.1235C36.6625 43.7681 36.7238 44.2435 37.2313 44.6256C37.6017 44.9056 38.2609 44.9464 38.9492 44.9027C40.2034 44.8181 41.0842 44.506 41.5217 44.3194C42.2013 44.0802 42.9917 43.701 43.7325 43.1556C45.1004 42.1494 45.9259 40.7085 45.8471 38.8039C45.8034 37.7539 45.4679 36.7127 45.045 35.7298C45.1704 35.5519 45.2929 35.371 45.4184 35.1873C47.5767 32.0344 49.2509 28.5664 49.2509 28.5664C49.2509 28.5664 49.4084 29.6281 49.9246 31.3869C50.1871 32.2764 50.7004 33.2477 51.1671 34.1985C49.1371 35.8464 47.88 37.7627 47.4425 39.0198C46.6346 41.3444 47.2675 42.3973 48.4546 42.6364C48.9913 42.7444 49.7525 42.4994 50.3213 42.2573C51.0329 42.021 51.8846 41.6302 52.6838 41.0439C54.0517 40.0377 55.3671 38.6289 55.2884 36.7214C55.2534 35.8523 55.0171 34.9919 54.6963 34.1635C56.4171 33.446 58.6425 33.0494 61.4775 33.3789C67.5617 34.0906 68.7546 37.8881 68.5271 39.4777C68.2996 41.0673 67.0221 41.9423 66.5963 42.2048C66.1704 42.4673 66.0392 42.5606 66.0742 42.756C66.1267 43.0419 66.3221 43.0302 66.6867 42.9689C67.1884 42.8844 69.8804 41.6769 69.9971 38.7398C70.1429 35.0094 66.5729 30.9173 60.2496 30.9523ZM13.3525 46.7606C11.3371 48.9598 8.52252 49.791 7.31502 49.091C6.01127 48.3356 6.52752 45.0981 9.00085 42.7648C10.5088 41.3444 12.4542 40.0348 13.7463 39.2269C14.0408 39.0489 14.4725 38.7894 14.9975 38.4773C15.085 38.4277 15.1346 38.4014 15.1346 38.4014L15.1317 38.3985C15.2338 38.3373 15.3359 38.276 15.4438 38.2119C16.3421 41.531 15.4671 44.4535 13.3525 46.7606ZM28.035 36.7798C27.3321 38.4919 25.865 42.8698 24.9696 42.6335C24.2025 42.4323 23.7359 39.1044 24.815 35.8289C25.3604 34.181 26.5213 32.2094 27.2067 31.4452C28.3063 30.2144 29.5167 29.8119 29.8113 30.3106C30.1875 30.9494 28.4754 35.7094 28.035 36.7798ZM40.1625 42.5694C39.865 42.7239 39.5909 42.8231 39.4654 42.7473C39.3721 42.6919 39.5879 42.4877 39.5879 42.4877C39.5879 42.4877 41.1046 40.8544 41.7025 40.1135C42.0496 39.6819 42.4521 39.1685 42.8925 38.5939C42.8954 38.6523 42.8984 38.7077 42.8984 38.7631C42.8954 40.7173 41.0054 42.0385 40.1625 42.5694ZM49.5075 40.4373C49.2859 40.2798 49.3238 39.7694 50.0529 38.1798C50.3388 37.5556 50.9921 36.5056 52.1296 35.4994C52.2609 35.9135 52.3425 36.3073 52.3396 36.6777C52.325 39.1394 50.5692 40.0581 49.5075 40.4373Z" fill="#1C2321"/>
</svg>
