<svg width="53" height="53" viewBox="0 0 53 53" fill="none" xmlns="http://www.w3.org/2000/svg">
<path d="M21.9301 19.4652C33.9604 19.4652 43.7128 15.1243 43.7128 9.76947C43.7128 4.41466 33.9604 0.0737305 21.9301 0.0737305C9.89989 0.0737305 0.147461 4.41466 0.147461 9.76947C0.147461 15.1243 9.89989 19.4652 21.9301 19.4652Z" fill="#1C2321"/>
<path d="M26.9744 45.3778C25.4474 44.989 24.3072 43.7441 24.0192 42.2231C23.3302 42.2534 22.6332 42.2695 21.9301 42.2695C9.89759 42.2695 0.147461 37.9323 0.147461 32.5737C0.147461 34.8098 0.147461 36.3046 0.147461 39.9871C0.147461 45.3436 9.89759 49.6828 21.9301 49.6828C23.6606 49.6828 25.3366 49.5841 26.9522 49.4128C26.2512 48.1699 26.219 46.6349 26.9744 45.3778Z" fill="#1C2321"/>
<path d="M21.9301 39.61C22.611 39.61 23.2798 39.5918 23.9446 39.5657V38.4537C23.9446 36.5923 25.2158 34.9908 26.9946 34.5476C26.5272 33.7559 26.356 32.8554 26.4668 31.9871C25.0022 32.1241 23.4873 32.1987 21.9301 32.1987C9.89759 32.1987 0.147461 27.8615 0.147461 22.5029C0.147461 24.739 0.147461 26.2338 0.147461 29.9163C0.149475 35.2708 9.89759 39.61 21.9301 39.61Z" fill="#1C2321"/>
<path d="M21.9301 29.5378C24.0816 29.5378 26.1565 29.3947 28.1206 29.1349L29.7484 27.5072C30.528 26.7255 31.5594 26.3267 32.5989 26.3267C33.2979 26.3267 33.9989 26.508 34.6295 26.8766C35.0888 25.122 36.6802 23.871 38.5255 23.871H41.5472C41.6016 23.871 41.656 23.8831 41.7084 23.8851C42.9836 22.6543 43.7108 21.2864 43.7108 19.842C43.7108 17.8739 43.7108 15.8231 43.7108 12.4287C43.7108 17.7852 33.9607 22.1244 21.9281 22.1244C9.89557 22.1244 0.149475 17.7852 0.149475 12.4287C0.149475 14.6648 0.149475 16.1595 0.149475 19.842C0.149475 25.1986 9.89758 29.5378 21.9301 29.5378Z" fill="#1C2321"/>
<path d="M52.1474 41.4735V38.4518L48.5516 37.8636C48.3401 37.0135 48.0056 36.2137 47.5645 35.4764L49.6595 32.4909L47.5222 30.3536L44.573 32.4748C43.8377 32.0296 43.0319 31.6892 42.1757 31.4776L41.5472 27.8999H38.5255L37.9433 31.4676C37.0851 31.6771 36.2753 32.0115 35.538 32.4526L32.5968 30.3536L30.4595 32.4909L32.5283 35.4482C32.0791 36.1895 31.7387 36.9973 31.5251 37.8615L27.9736 38.4518V41.4735L31.5231 42.1021C31.7346 42.9663 32.0751 43.7761 32.5263 44.5174L30.4292 47.4485L32.5666 49.5879L35.5279 47.515C36.2692 47.9602 37.077 48.2946 37.9332 48.5061L38.5255 52.0738H41.5472L42.1818 48.496C43.0339 48.2825 43.8397 47.94 44.575 47.4948L47.5584 49.5879L49.6938 47.4485L47.5645 44.4932C48.0056 43.758 48.3401 42.9562 48.5496 42.1021L52.1474 41.4735ZM40.0605 44.2011C37.7358 44.2011 35.8462 42.3156 35.8462 39.9868C35.8462 37.6621 37.7358 35.7725 40.0605 35.7725C42.3893 35.7725 44.2748 37.6621 44.2748 39.9868C44.2748 42.3156 42.3893 44.2011 40.0605 44.2011Z" fill="#1C2321"/>
</svg>
