<svg width="53" height="53" viewBox="0 0 53 53" fill="none" xmlns="http://www.w3.org/2000/svg">
<path d="M35.6738 24.0071C34.7842 24.0071 34.1367 24.3658 33.7254 25.0833C33.3142 25.8008 33.11 27.0783 33.11 28.9129V30.1933C33.11 32.0163 33.3025 33.2908 33.6904 34.0142C34.0783 34.7375 34.7317 35.0992 35.6563 35.0992C36.6129 35.0992 37.3363 34.6733 37.8263 33.8188V25.375C37.3508 24.465 36.6333 24.0071 35.6738 24.0071ZM46.6667 0H5.83333C2.61333 0 0 2.61042 0 5.83333V46.6667C0 49.8896 2.61333 52.5 5.83333 52.5H46.6667C49.8867 52.5 52.5 49.8896 52.5 46.6667V5.83333C52.5 2.61042 49.8867 0 46.6667 0ZM21.2158 38.7917L17.7975 30.0942L14.3996 38.7917H8.56917L14.5512 26.2471L8.68875 13.9096H14.4492L17.7975 22.4554L21.1458 13.9096H26.9063L21.0613 26.2471L27.0433 38.7917H21.2158ZM42.7 38.7917H38.3075L38.0858 36.9104C37.0942 38.3921 35.8196 39.1329 34.2563 39.1329C32.3196 39.1329 30.8408 38.3921 29.82 36.9104C28.7992 35.4287 28.28 33.2529 28.2567 30.3829V28.9829C28.2567 25.9525 28.77 23.6921 29.7938 22.1988C30.8175 20.7054 32.3108 19.9588 34.2708 19.9588C35.6942 19.9588 36.8813 20.5742 37.8263 21.805V12.5417H42.6971V38.7917H42.7Z" fill="#1C2321"/>
</svg>
